<svg width="18" height="19" viewBox="0 0 18 19" fill="none" xmlns="http://www.w3.org/2000/svg">
    <path d="M9 18.5527C6.48333 18.5527 4.35417 17.6819 2.6125 15.9402C0.870833 14.1985 0 12.0694 0 9.55269C0 7.25269 0.75 5.25686 2.25 3.56519C3.75 1.87352 5.66667 0.886022 8 0.602689C8.21667 0.569355 8.40833 0.598522 8.575 0.690189C8.74167 0.781855 8.875 0.902689 8.975 1.05269C9.075 1.20269 9.12917 1.37769 9.1375 1.57769C9.14583 1.77769 9.08333 1.96936 8.95 2.15269C8.66667 2.58602 8.45417 3.04436 8.3125 3.52769C8.17083 4.01102 8.1 4.51936 8.1 5.05269C8.1 6.55269 8.625 7.82769 9.675 8.87769C10.725 9.92769 12 10.4527 13.5 10.4527C14.0167 10.4527 14.5292 10.3777 15.0375 10.2277C15.5458 10.0777 16 9.86936 16.4 9.60269C16.5833 9.48602 16.7708 9.43186 16.9625 9.44019C17.1542 9.44852 17.325 9.49436 17.475 9.57769C17.6417 9.66102 17.7708 9.78602 17.8625 9.95269C17.9542 10.1194 17.9833 10.3194 17.95 10.5527C17.7167 12.8527 16.7375 14.761 15.0125 16.2777C13.2875 17.7944 11.2833 18.5527 9 18.5527ZM9 16.5527C10.4667 16.5527 11.7833 16.1485 12.95 15.3402C14.1167 14.5319 14.9667 13.4777 15.5 12.1777C15.1667 12.261 14.8333 12.3277 14.5 12.3777C14.1667 12.4277 13.8333 12.4527 13.5 12.4527C11.45 12.4527 9.70417 11.7319 8.2625 10.2902C6.82083 8.84852 6.1 7.10269 6.1 5.05269C6.1 4.71936 6.125 4.38602 6.175 4.05269C6.225 3.71936 6.29167 3.38602 6.375 3.05269C5.075 3.58602 4.02083 4.43602 3.2125 5.60269C2.40417 6.76936 2 8.08602 2 9.55269C2 11.486 2.68333 13.136 4.05 14.5027C5.41667 15.8694 7.06667 16.5527 9 16.5527Z" fill="#97A1AF"/>
</svg>
