<svg width="21" height="16" viewBox="0 0 21 16" fill="none" xmlns="http://www.w3.org/2000/svg">
    <path d="M12.8535 9.66699C14.1851 9.66699 15.3287 10.6531 15.6152 11.9414L15.7021 12.333H19.7285C19.7974 12.333 19.8533 12.3891 19.8535 12.458C19.8535 12.527 19.7976 12.583 19.7285 12.583H15.6797L15.6104 13.001C15.4014 14.2545 14.2813 15.25 12.8535 15.25C11.5102 15.25 10.3782 14.3358 10.0928 12.9805L10.0088 12.583H0.978516C0.90948 12.583 0.853516 12.527 0.853516 12.458C0.853692 12.3891 0.909589 12.333 0.978516 12.333H10.0273L10.0967 11.916C10.3056 10.6625 11.4257 9.66699 12.8535 9.66699ZM12.8535 9.83301C11.4107 9.83301 10.2705 10.9742 10.2705 12.417C10.2707 13.8596 11.4108 15 12.8535 15C14.2962 15 15.4364 13.8596 15.4365 12.417C15.4365 10.9742 14.2963 9.83301 12.8535 9.83301ZM7.85352 0.75C9.27412 0.75 10.3977 1.73779 10.6094 3.07812L10.6758 3.5H19.7285C19.7976 3.5 19.8535 3.55597 19.8535 3.625C19.8535 3.69404 19.7976 3.75 19.7285 3.75H10.7021L10.6152 4.1416C10.3289 5.43007 9.1852 6.41699 7.85352 6.41699C6.52183 6.41699 5.37817 5.43007 5.0918 4.1416L5.00488 3.75H0.978516C0.90948 3.75 0.853516 3.69404 0.853516 3.625C0.853516 3.55596 0.909481 3.5 0.978516 3.5H5.03125L5.09766 3.07812C5.30929 1.73779 6.43291 0.75 7.85352 0.75ZM7.85352 1C6.41081 1 5.27068 2.14035 5.27051 3.58301C5.27051 5.02582 6.41071 6.16699 7.85352 6.16699C9.29632 6.16699 10.4365 5.02582 10.4365 3.58301C10.4364 2.14035 9.29622 1 7.85352 1Z" fill="#3E3E3E" stroke="#141C24"/>
</svg>
