<svg width="19" height="18" viewBox="0 0 19 18" fill="none" xmlns="http://www.w3.org/2000/svg">
    <path d="M12.3239 17.325C12.3239 16.9522 12.0217 16.65 11.6489 16.65H2.6768C2.40066 16.65 2.1768 16.4261 2.1768 16.15V1.85C2.1768 1.57386 2.40066 1.35 2.6768 1.35H11.6489C12.0217 1.35 12.3239 1.04779 12.3239 0.675C12.3239 0.302208 12.0217 0 11.6489 0H2.85327C1.7487 0 0.853271 0.895431 0.853271 2V16C0.853271 17.1046 1.7487 18 2.85327 18H11.6489C12.0217 18 12.3239 17.6978 12.3239 17.325ZM10.748 8.64C10.4 8.64 10.118 8.92206 10.118 9.27C10.118 9.61794 10.4 9.9 10.748 9.9H16.2944L14.1231 12.1148C13.8589 12.3843 13.8589 12.8157 14.1231 13.0852C14.3948 13.3624 14.8412 13.3624 15.1129 13.0852L18.1669 9.97007C18.5482 9.58121 18.5482 8.95879 18.1669 8.56993L15.1129 5.4548C14.8412 5.17764 14.3948 5.17764 14.1231 5.4548C13.8589 5.72431 13.8589 6.15569 14.1231 6.4252L16.2944 8.64H10.748Z" fill="white"/>
</svg>
