<svg width="20" height="21" viewBox="0 0 20 21" fill="none" xmlns="http://www.w3.org/2000/svg">
    <path d="M13.9239 14.6765C14.2375 14.3914 14.2492 13.9019 13.9494 13.6021L10.7 10.3527V5.30273C10.7 4.88852 10.3642 4.55273 9.95001 4.55273C9.5358 4.55273 9.20001 4.88852 9.20001 5.30273V10.5385C9.20001 10.8037 9.30537 11.0581 9.49291 11.2456L12.8994 14.6521C13.1797 14.9324 13.6306 14.9431 13.9239 14.6765Z" fill="#141C24"/>
    <path d="M10 20.5527C8.63333 20.5527 7.34167 20.2902 6.125 19.7652C4.90833 19.2402 3.84583 18.5236 2.9375 17.6152C2.02917 16.7069 1.3125 15.6444 0.7875 14.4277C0.2625 13.2111 0 11.9111 0 10.5277C0 9.16107 0.2625 7.8694 0.7875 6.65273C1.3125 5.43607 2.02917 4.37773 2.9375 3.47773C3.84583 2.57773 4.90833 1.86523 6.125 1.34023C7.34167 0.815234 8.64167 0.552734 10.025 0.552734C11.3917 0.552734 12.6833 0.815234 13.9 1.34023C15.1167 1.86523 16.175 2.57773 17.075 3.47773C17.975 4.37773 18.6875 5.43607 19.2125 6.65273C19.7375 7.8694 20 9.1694 20 10.5527C20 11.9194 19.7375 13.2111 19.2125 14.4277C18.6875 15.6444 17.975 16.7069 17.075 17.6152C16.175 18.5236 15.1167 19.2402 13.9 19.7652C12.6833 20.2902 11.3833 20.5527 10 20.5527ZM10 19.0527C12.3667 19.0527 14.375 18.2236 16.025 16.5652C17.675 14.9069 18.5 12.9027 18.5 10.5527C18.5 8.18607 17.675 6.17773 16.025 4.52773C14.375 2.87773 12.3667 2.05273 10 2.05273C7.65 2.05273 5.64583 2.87773 3.9875 4.52773C2.32917 6.17773 1.5 8.18607 1.5 10.5527C1.5 12.9027 2.32917 14.9069 3.9875 16.5652C5.64583 18.2236 7.65 19.0527 10 19.0527Z" fill="#141C24"/>
</svg>
