<svg width="23" height="22" viewBox="0 0 23 22" fill="none" xmlns="http://www.w3.org/2000/svg">
    <path d="M11.8533 14C12.6866 14 13.3949 13.7083 13.9783 13.125C14.5616 12.5417 14.8533 11.8333 14.8533 11C14.8533 10.1667 14.5616 9.45833 13.9783 8.875C13.3949 8.29167 12.6866 8 11.8533 8C11.0199 8 10.3116 8.29167 9.72827 8.875C9.14494 9.45833 8.85327 10.1667 8.85327 11C8.85327 11.8333 9.14494 12.5417 9.72827 13.125C10.3116 13.7083 11.0199 14 11.8533 14ZM11.8533 16C10.4699 16 9.29077 15.5125 8.31577 14.5375C7.34077 13.5625 6.85327 12.3833 6.85327 11C6.85327 9.61667 7.34077 8.4375 8.31577 7.4625C9.29077 6.4875 10.4699 6 11.8533 6C13.2366 6 14.4158 6.4875 15.3908 7.4625C16.3658 8.4375 16.8533 9.61667 16.8533 11C16.8533 12.3833 16.3658 13.5625 15.3908 14.5375C14.4158 15.5125 13.2366 16 11.8533 16ZM1.85327 12C1.56994 12 1.33244 11.9042 1.14077 11.7125C0.949105 11.5208 0.853271 11.2833 0.853271 11C0.853271 10.7167 0.949105 10.4792 1.14077 10.2875C1.33244 10.0958 1.56994 10 1.85327 10H3.85327C4.1366 10 4.3741 10.0958 4.56577 10.2875C4.75744 10.4792 4.85327 10.7167 4.85327 11C4.85327 11.2833 4.75744 11.5208 4.56577 11.7125C4.3741 11.9042 4.1366 12 3.85327 12H1.85327ZM19.8533 12C19.5699 12 19.3324 11.9042 19.1408 11.7125C18.9491 11.5208 18.8533 11.2833 18.8533 11C18.8533 10.7167 18.9491 10.4792 19.1408 10.2875C19.3324 10.0958 19.5699 10 19.8533 10H21.8533C22.1366 10 22.3741 10.0958 22.5658 10.2875C22.7574 10.4792 22.8533 10.7167 22.8533 11C22.8533 11.2833 22.7574 11.5208 22.5658 11.7125C22.3741 11.9042 22.1366 12 21.8533 12H19.8533ZM11.8533 4C11.5699 4 11.3324 3.90417 11.1408 3.7125C10.9491 3.52083 10.8533 3.28333 10.8533 3V1C10.8533 0.716667 10.9491 0.479167 11.1408 0.2875C11.3324 0.0958333 11.5699 0 11.8533 0C12.1366 0 12.3741 0.0958333 12.5658 0.2875C12.7574 0.479167 12.8533 0.716667 12.8533 1V3C12.8533 3.28333 12.7574 3.52083 12.5658 3.7125C12.3741 3.90417 12.1366 4 11.8533 4ZM11.8533 22C11.5699 22 11.3324 21.9042 11.1408 21.7125C10.9491 21.5208 10.8533 21.2833 10.8533 21V19C10.8533 18.7167 10.9491 18.4792 11.1408 18.2875C11.3324 18.0958 11.5699 18 11.8533 18C12.1366 18 12.3741 18.0958 12.5658 18.2875C12.7574 18.4792 12.8533 18.7167 12.8533 19V21C12.8533 21.2833 12.7574 21.5208 12.5658 21.7125C12.3741 21.9042 12.1366 22 11.8533 22ZM5.50327 6.05L4.42827 5C4.22827 4.81667 4.13244 4.58333 4.14077 4.3C4.1491 4.01667 4.24494 3.775 4.42827 3.575C4.62827 3.375 4.86994 3.275 5.15327 3.275C5.4366 3.275 5.66994 3.375 5.85327 3.575L6.90327 4.65C7.08661 4.85 7.17827 5.08333 7.17827 5.35C7.17827 5.61667 7.08661 5.85 6.90327 6.05C6.71994 6.25 6.49077 6.34583 6.21577 6.3375C5.94077 6.32917 5.70327 6.23333 5.50327 6.05ZM17.8533 18.425L16.8033 17.35C16.6199 17.15 16.5283 16.9125 16.5283 16.6375C16.5283 16.3625 16.6199 16.1333 16.8033 15.95C16.9866 15.75 17.2158 15.6542 17.4908 15.6625C17.7658 15.6708 18.0033 15.7667 18.2033 15.95L19.2783 17C19.4783 17.1833 19.5741 17.4167 19.5658 17.7C19.5574 17.9833 19.4616 18.225 19.2783 18.425C19.0783 18.625 18.8366 18.725 18.5533 18.725C18.2699 18.725 18.0366 18.625 17.8533 18.425ZM16.8033 6.05C16.6033 5.86667 16.5074 5.6375 16.5158 5.3625C16.5241 5.0875 16.6199 4.85 16.8033 4.65L17.8533 3.575C18.0366 3.375 18.2699 3.27917 18.5533 3.2875C18.8366 3.29583 19.0783 3.39167 19.2783 3.575C19.4783 3.775 19.5783 4.01667 19.5783 4.3C19.5783 4.58333 19.4783 4.81667 19.2783 5L18.2033 6.05C18.0033 6.23333 17.7699 6.325 17.5033 6.325C17.2366 6.325 17.0033 6.23333 16.8033 6.05ZM4.42827 18.425C4.22827 18.225 4.12827 17.9833 4.12827 17.7C4.12827 17.4167 4.22827 17.1833 4.42827 17L5.50327 15.95C5.70327 15.7667 5.94077 15.675 6.21577 15.675C6.49077 15.675 6.71994 15.7667 6.90327 15.95C7.10327 16.1333 7.1991 16.3625 7.19077 16.6375C7.18244 16.9125 7.08661 17.15 6.90327 17.35L5.85327 18.425C5.66994 18.625 5.4366 18.7208 5.15327 18.7125C4.86994 18.7042 4.62827 18.6083 4.42827 18.425Z" fill="white"/>
</svg>
