<svg width="17" height="16" viewBox="0 0 17 16" fill="none" xmlns="http://www.w3.org/2000/svg">
    <path fill-rule="evenodd" clip-rule="evenodd" d="M12.8533 4C12.8533 6.20914 11.0624 8 8.85327 8C6.64413 8 4.85327 6.20914 4.85327 4C4.85327 1.79086 6.64413 0 8.85327 0C11.0624 0 12.8533 1.79086 12.8533 4ZM11.3533 4C11.3533 5.38071 10.234 6.5 8.85327 6.5C7.47256 6.5 6.35327 5.38071 6.35327 4C6.35327 2.61929 7.47256 1.5 8.85327 1.5C10.234 1.5 11.3533 2.61929 11.3533 4Z" fill="white"/>
    <path fill-rule="evenodd" clip-rule="evenodd" d="M0.853271 13.772V16H16.8533V13.772C16.8533 12.1046 15.819 10.6121 14.2578 10.0267L14.1201 9.97507C10.7243 8.70165 6.9822 8.70165 3.58642 9.97507L3.44878 10.0267C1.88756 10.6121 0.853271 12.1046 0.853271 13.772ZM4.11311 11.3796C7.16931 10.2335 10.5372 10.2335 13.5934 11.3796L13.7311 11.4312C14.7068 11.7971 15.3533 12.7299 15.3533 13.772V14.5H2.35327V13.772C2.35327 12.7299 2.9997 11.7971 3.97546 11.4312L4.11311 11.3796Z" fill="white"/>
</svg>