<svg width="18" height="19" viewBox="0 0 18 19" fill="none" xmlns="http://www.w3.org/2000/svg">
    <path d="M11.4706 17.8777C11.4706 17.5049 11.1684 17.2027 10.7956 17.2027H1.82353C1.54739 17.2027 1.32353 16.9789 1.32353 16.7027V2.40273C1.32353 2.12659 1.54739 1.90273 1.82353 1.90273H10.7956C11.1684 1.90273 11.4706 1.60053 11.4706 1.22773C11.4706 0.854942 11.1684 0.552734 10.7956 0.552734H2C0.895432 0.552734 0 1.44816 0 2.55273V16.5527C0 17.6573 0.895431 18.5527 2 18.5527H10.7956C11.1684 18.5527 11.4706 18.2505 11.4706 17.8777ZM9.8947 9.19273C9.54677 9.19273 9.26471 9.4748 9.26471 9.82273C9.26471 10.1707 9.54677 10.4527 9.8947 10.4527H15.4412L13.2698 12.6675C13.0056 12.937 13.0056 13.3684 13.2698 13.6379C13.5415 13.9151 13.9879 13.9151 14.2596 13.6379L17.3137 10.5228C17.6949 10.1339 17.6949 9.51152 17.3137 9.12266L14.2596 6.00754C13.9879 5.73037 13.5415 5.73037 13.2698 6.00754C13.0056 6.27704 13.0056 6.70843 13.2698 6.97793L15.4412 9.19273H9.8947Z" fill="#141C24"/>
</svg>
