<svg width="38" height="30" viewBox="0 0 38 30" fill="none" xmlns="http://www.w3.org/2000/svg">
    <path d="M36.6199 11.7038H34.9549L30.6722 1.59851C30.4784 1.1413 30.1623 0.752861 29.7622 0.480236C29.3622 0.207611 28.8954 0.062506 28.4183 0.0625H10.2883C9.81119 0.062506 9.34434 0.207611 8.94429 0.480236C8.54425 0.752861 8.22817 1.1413 8.03436 1.59851L3.7516 11.7038H2.0866C1.7595 11.7038 1.4458 11.8401 1.21451 12.0827C0.983212 12.3252 0.853271 12.6542 0.853271 12.9973C0.853271 13.3403 0.983212 13.6693 1.21451 13.9119C1.4458 14.1545 1.7595 14.2908 2.0866 14.2908H3.31994V27.2255C3.31994 27.9116 3.57982 28.5696 4.04241 29.0548C4.505 29.5399 5.1324 29.8125 5.7866 29.8125H9.4866C10.1408 29.8125 10.7682 29.5399 11.2308 29.0548C11.6934 28.5696 11.9533 27.9116 11.9533 27.2255V25.9321H26.7533V27.2255C26.7533 27.9116 27.0132 28.5696 27.4757 29.0548C27.9383 29.5399 28.5657 29.8125 29.2199 29.8125H32.9199C33.5741 29.8125 34.2015 29.5399 34.6641 29.0548C35.1267 28.5696 35.3866 27.9116 35.3866 27.2255V14.2908H36.6199C36.947 14.2908 37.2607 14.1545 37.492 13.9119C37.7233 13.6693 37.8533 13.3403 37.8533 12.9973C37.8533 12.6542 37.7233 12.3252 37.492 12.0827C37.2607 11.8401 36.947 11.7038 36.6199 11.7038ZM11.9533 19.4647H8.25327C7.92617 19.4647 7.61247 19.3284 7.38117 19.0858C7.14988 18.8433 7.01994 18.5142 7.01994 18.1712C7.01994 17.8281 7.14988 17.4991 7.38117 17.2566C7.61247 17.014 7.92617 16.8777 8.25327 16.8777H11.9533C12.2804 16.8777 12.5941 17.014 12.8254 17.2566C13.0567 17.4991 13.1866 17.8281 13.1866 18.1712C13.1866 18.5142 13.0567 18.8433 12.8254 19.0858C12.5941 19.3284 12.2804 19.4647 11.9533 19.4647ZM30.4533 19.4647H26.7533C26.4262 19.4647 26.1125 19.3284 25.8812 19.0858C25.6499 18.8433 25.5199 18.5142 25.5199 18.1712C25.5199 17.8281 25.6499 17.4991 25.8812 17.2566C26.1125 17.014 26.4262 16.8777 26.7533 16.8777H30.4533C30.7804 16.8777 31.0941 17.014 31.3254 17.2566C31.5567 17.4991 31.6866 17.8281 31.6866 18.1712C31.6866 18.5142 31.5567 18.8433 31.3254 19.0858C31.0941 19.3284 30.7804 19.4647 30.4533 19.4647ZM6.45106 11.7038L10.2883 2.64946H28.4183L32.2555 11.7038H6.45106Z" fill="#DB0019"/>
</svg>