<svg width="16" height="17" viewBox="0 0 16 17" fill="none" xmlns="http://www.w3.org/2000/svg">
    <path fill-rule="evenodd" clip-rule="evenodd" d="M12 4.55273C12 6.76187 10.2091 8.55273 8 8.55273C5.79086 8.55273 4 6.76187 4 4.55273C4 2.3436 5.79086 0.552734 8 0.552734C10.2091 0.552734 12 2.3436 12 4.55273ZM10.5 4.55273C10.5 5.93345 9.38071 7.05273 8 7.05273C6.61929 7.05273 5.5 5.93345 5.5 4.55273C5.5 3.17202 6.61929 2.05273 8 2.05273C9.38071 2.05273 10.5 3.17202 10.5 4.55273Z" fill="#141C24"/>
    <path fill-rule="evenodd" clip-rule="evenodd" d="M0 14.3247V16.5527H16V14.3247C16 12.6574 14.9657 11.1649 13.4045 10.5794L13.2669 10.5278C9.87107 9.25439 6.12893 9.25439 2.73315 10.5278L2.59551 10.5794C1.03429 11.1649 0 12.6574 0 14.3247ZM3.25984 11.9323C6.31603 10.7862 9.68397 10.7862 12.7402 11.9323L12.8778 11.9839C13.8536 12.3498 14.5 13.2826 14.5 14.3247V15.0527H1.5V14.3247C1.5 13.2826 2.14643 12.3498 3.12219 11.9839L3.25984 11.9323Z" fill="#141C24"/>
</svg>
