<svg width="21" height="20" viewBox="0 0 21 20" fill="none" xmlns="http://www.w3.org/2000/svg">
    <path d="M14.7771 14.1238C15.0908 13.8386 15.1024 13.3492 14.8027 13.0494L11.5533 9.8V4.75C11.5533 4.33579 11.2175 4 10.8033 4C10.3891 4 10.0533 4.33579 10.0533 4.75V9.98579C10.0533 10.251 10.1586 10.5054 10.3462 10.6929L13.7527 14.0994C14.0329 14.3796 14.4839 14.3904 14.7771 14.1238Z" fill="white"/>
    <path d="M10.8533 20C9.4866 20 8.19494 19.7375 6.97827 19.2125C5.7616 18.6875 4.6991 17.9708 3.79077 17.0625C2.88244 16.1542 2.16577 15.0917 1.64077 13.875C1.11577 12.6583 0.853271 11.3583 0.853271 9.975C0.853271 8.60833 1.11577 7.31667 1.64077 6.1C2.16577 4.88333 2.88244 3.825 3.79077 2.925C4.6991 2.025 5.7616 1.3125 6.97827 0.7875C8.19494 0.2625 9.49494 0 10.8783 0C12.2449 0 13.5366 0.2625 14.7533 0.7875C15.9699 1.3125 17.0283 2.025 17.9283 2.925C18.8283 3.825 19.5408 4.88333 20.0658 6.1C20.5908 7.31667 20.8533 8.61667 20.8533 10C20.8533 11.3667 20.5908 12.6583 20.0658 13.875C19.5408 15.0917 18.8283 16.1542 17.9283 17.0625C17.0283 17.9708 15.9699 18.6875 14.7533 19.2125C13.5366 19.7375 12.2366 20 10.8533 20ZM10.8533 18.5C13.2199 18.5 15.2283 17.6708 16.8783 16.0125C18.5283 14.3542 19.3533 12.35 19.3533 10C19.3533 7.63333 18.5283 5.625 16.8783 3.975C15.2283 2.325 13.2199 1.5 10.8533 1.5C8.50327 1.5 6.4991 2.325 4.84077 3.975C3.18244 5.625 2.35327 7.63333 2.35327 10C2.35327 12.35 3.18244 14.3542 4.84077 16.0125C6.4991 17.6708 8.50327 18.5 10.8533 18.5Z" fill="white"/>
</svg>